<svg width="32" height="32" viewBox="0 0 32 32" fill="none" xmlns="http://www.w3.org/2000/svg">
<g clip-path="url(#clip0_207_247)">
<path d="M31.813 3.65333C31.3841 3.19243 30.8683 2.82087 30.2952 2.56001C29.7222 2.29915 29.1033 2.15414 28.474 2.13333H28.466C27.3294 2.08307 26.2131 2.44572 25.323 3.15433L25.333 3.14733C24 1.97433 22.213 1.40033 21.04 2.50733L19.893 3.60033C22.3293 4.86462 24.3832 6.75731 25.842 9.08233L25.879 9.14633L26.666 8.45333C27.826 7.36033 27.413 5.61333 26.359 4.21333C26.9319 3.78729 27.6271 3.55788 28.341 3.55933C29.306 3.55933 30.175 3.96933 30.783 4.62433L30.785 4.62633C30.912 4.76533 31.095 4.85333 31.298 4.85333H31.306C31.3952 4.85333 31.4836 4.83565 31.566 4.80133C31.6484 4.767 31.7232 4.7167 31.786 4.65333C31.8536 4.58954 31.908 4.513 31.9459 4.42811C31.9839 4.34323 32.0047 4.25168 32.0071 4.15874C32.0095 4.06579 31.9935 3.97328 31.96 3.88654C31.9265 3.7998 31.8762 3.72054 31.812 3.65333H31.813ZM26 17.0933C26 24.2733 20.18 30.0933 13 30.0933C5.82 30.0933 0 24.2733 0 17.0933C0 9.91333 5.82 4.09333 13 4.09333C20.18 4.09333 26 9.91333 26 17.0933Z" fill="white"/>
</g>
<defs>
<clipPath id="clip0_207_247">
<rect width="32" height="32" fill="white"/>
</clipPath>
</defs>
</svg>
