<svg width="58" height="56" viewBox="0 0 58 56" fill="none" xmlns="http://www.w3.org/2000/svg">
<path d="M28.9998 20.6117L46.9224 0.000183105L57.9997 20.6117H28.9998V20.6117Z" fill="#A8F55C"/>
<path d="M29.0001 20.6117L11.0774 0.000183105H46.9244L29.0017 20.6117H29.0001Z" fill="#B9FF74"/>
<path d="M28.9998 20.6115H57.9997L28.9998 55.1622V20.6115V20.6115Z" fill="#9CDF5A"/>
<path d="M29 20.6115H0L11.0773 0L29 20.6115Z" fill="#96DB51"/>
<path d="M29 55.1622L0 20.6115H29V55.1622Z" fill="#A8F55C"/>
<mask id="mask0_31_2" style="mask-type:alpha" maskUnits="userSpaceOnUse" x="0" y="0" width="58" height="56">
<path d="M28.9998 20.6117L46.9224 0.000183105L57.9997 20.6117H28.9998V20.6117Z" fill="#ED1C24"/>
<path d="M29.0001 20.6117L11.0774 0.000183105H46.9244L29.0017 20.6117H29.0001Z" fill="#FF7676"/>
<path d="M28.9998 20.6115H57.9997L28.9998 55.1622V20.6115V20.6115Z" fill="#AD1515"/>
<path d="M29 20.6115H0L11.0773 0L29 20.6115Z" fill="#EA292C"/>
<path d="M29 55.1622L0 20.6115H29V55.1622Z" fill="#D5241C"/>
</mask>
<g mask="url(#mask0_31_2)">
<g style="mix-blend-mode:soft-light">
<g style="mix-blend-mode:soft-light">
<path d="M57.5907 14.1555L3.84824 32.3666L0.0585938 21.182L53.801 2.97084L57.5907 14.1555V14.1555Z" fill="white"/>
</g>
<g style="mix-blend-mode:soft-light" opacity="0.5">
<path d="M67.1537 22.3068L0.508847 44.8908L-1.63354 38.5662L65.0113 15.9822L67.1537 22.3068Z" fill="white"/>
</g>
</g>
<path opacity="0.6" d="M43.1246 12.3689C39.6779 12.3689 36.885 15.1619 36.885 18.6086C36.885 15.1619 34.092 12.3689 30.6453 12.3689C34.092 12.3689 36.885 9.57594 36.885 6.12921C36.885 9.57594 39.6779 12.3689 43.1246 12.3689Z" fill="white"/>
</g>
</svg>
