<svg width="47" height="65" viewBox="0 0 47 65" fill="none" xmlns="http://www.w3.org/2000/svg">
<path d="M23.0698 15.5198C23.7372 15.2224 24.4083 14.9503 25.083 14.7037C25.0685 14.8633 25.0612 15.0229 25.0612 15.1825C24.3938 15.2986 23.73 15.411 23.0698 15.5198Z" fill="white"/>
<path d="M22.5258 14.8452C23.3964 14.5042 24.2669 14.1995 25.1375 13.9311C25.1085 14.185 25.0903 14.4425 25.0831 14.7037C24.4084 14.9504 23.7373 15.2224 23.0699 15.5199C22.874 15.5489 22.6818 15.5815 22.4932 15.6178C22.5004 15.3566 22.5113 15.0991 22.5258 14.8452Z" fill="white"/>
<path d="M22.6021 13.931C23.4799 13.6408 24.354 13.3906 25.2246 13.1802C25.1883 13.4268 25.1593 13.6771 25.1375 13.931C24.267 14.1994 23.3964 14.5041 22.5259 14.8451C22.5404 14.5404 22.5658 14.2357 22.6021 13.931Z" fill="#77767B"/>
<path d="M22.7218 13.0278C23.4037 12.8392 24.0856 12.676 24.7676 12.5381C24.9562 12.5454 25.1448 12.5527 25.3334 12.5599C25.2971 12.763 25.2609 12.9698 25.2246 13.1802C24.354 13.3906 23.4799 13.6408 22.6021 13.931C22.6311 13.6263 22.671 13.3253 22.7218 13.0278Z" fill="#77767B"/>
<path d="M24.7675 12.5382C24.0855 12.676 23.4036 12.8392 22.7217 13.0279C22.7507 12.8465 22.7833 12.6651 22.8196 12.4838C23.4725 12.5055 24.1218 12.5237 24.7675 12.5382Z" fill="#77767B"/>
<path d="M23.2109 13.5938C23.8856 13.3906 24.5639 13.2093 25.2459 13.0497C25.2241 13.202 25.2023 13.3544 25.1806 13.5067C24.5204 13.5357 23.8639 13.5648 23.2109 13.5938Z" fill="white"/>
<path d="M22.7431 12.8756C23.6282 12.6434 24.5096 12.4548 25.3874 12.3097C25.3366 12.5491 25.2895 12.7958 25.2459 13.0497C24.564 13.2093 23.8857 13.3906 23.211 13.5938C23.0151 13.601 22.8229 13.6083 22.6343 13.6155C22.6706 13.3689 22.7068 13.1222 22.7431 12.8756Z" fill="white"/>
<path d="M22.9173 11.9941C23.8023 11.82 24.6838 11.6822 25.5616 11.5806C25.4963 11.82 25.4383 12.0631 25.3875 12.3097C24.5097 12.4548 23.6282 12.6434 22.7432 12.8756C22.7939 12.5781 22.852 12.2843 22.9173 11.9941Z" fill="#77767B"/>
<path d="M23.1351 11.1235C23.8243 11.0292 24.5062 10.9567 25.1809 10.9059C25.3623 10.9349 25.5437 10.9639 25.725 10.9929C25.667 11.1888 25.6126 11.3847 25.5618 11.5806C24.684 11.6821 23.8025 11.82 22.9175 11.9941C22.9828 11.7039 23.0553 11.4137 23.1351 11.1235Z" fill="#77767B"/>
<path d="M25.1806 10.9059C24.5059 10.9567 23.824 11.0293 23.1348 11.1236C23.1855 10.9495 23.2363 10.779 23.2871 10.6121C23.9183 10.7064 24.5494 10.8044 25.1806 10.9059Z" fill="#77767B"/>
<path d="M23.5483 11.7439C24.2303 11.6205 24.9122 11.5262 25.5941 11.4609C25.5506 11.606 25.5107 11.7548 25.4744 11.9071C24.8288 11.8491 24.1867 11.7947 23.5483 11.7439Z" fill="white"/>
<path d="M23.1782 10.9821C24.056 10.866 24.9301 10.7899 25.8007 10.7536C25.7282 10.9857 25.6592 11.2215 25.5939 11.4609C24.912 11.5262 24.2301 11.6205 23.5481 11.7439C23.3595 11.7221 23.1745 11.704 22.9932 11.6894C23.0512 11.45 23.1129 11.2143 23.1782 10.9821Z" fill="white"/>
<path d="M23.4394 10.1442C24.3172 10.0789 25.1878 10.0499 26.0511 10.0572C25.964 10.2893 25.8806 10.5215 25.8008 10.7536C24.9302 10.7899 24.056 10.8661 23.1782 10.9821C23.258 10.6992 23.3451 10.4199 23.4394 10.1442Z" fill="#77767B"/>
<path d="M23.7441 9.31718C24.4188 9.30992 25.0899 9.32081 25.7573 9.34983C25.9314 9.40061 26.1055 9.45139 26.2796 9.50217C26.1998 9.68354 26.1237 9.86853 26.0511 10.0572C25.1878 10.0499 24.3173 10.0789 23.4395 10.1442C23.5338 9.86853 23.6353 9.59285 23.7441 9.31718Z" fill="#77767B"/>
<path d="M25.7573 9.34985C25.0899 9.32083 24.4188 9.30995 23.7441 9.3172C23.8094 9.15035 23.8747 8.98712 23.94 8.82751C24.5421 9.00163 25.1479 9.17574 25.7573 9.34985Z" fill="#77767B"/>
<path d="M24.0718 9.97018C24.7537 9.94116 25.4284 9.93391 26.0958 9.94842C26.0378 10.0863 25.9834 10.2241 25.9326 10.3619C25.3159 10.2313 24.6957 10.1008 24.0718 9.97018Z" fill="white"/>
<path d="M23.7997 9.18664C24.6703 9.17938 25.53 9.2084 26.3788 9.27369C26.2772 9.49133 26.1829 9.71622 26.0958 9.94837C25.4284 9.93386 24.7537 9.94111 24.0718 9.97013C23.8977 9.93386 23.7199 9.89759 23.5386 9.86131C23.6184 9.62916 23.7054 9.40427 23.7997 9.18664Z" fill="white"/>
<path d="M24.1371 8.39227C25.0004 8.42855 25.8529 8.50472 26.6944 8.62079C26.5856 8.83843 26.4804 9.05607 26.3788 9.27371C25.53 9.20842 24.6704 9.1794 23.7998 9.18666C23.9086 8.91823 24.0211 8.65344 24.1371 8.39227Z" fill="#77767B"/>
<path d="M24.5181 7.60876C25.1855 7.68131 25.8384 7.77199 26.4768 7.88081C26.6437 7.95336 26.8105 8.02591 26.9774 8.09845C26.8758 8.27256 26.7815 8.44667 26.6945 8.62078C25.8529 8.50471 25.0005 8.42853 24.1372 8.39226C24.2605 8.13109 24.3875 7.86993 24.5181 7.60876Z" fill="#77767B"/>
<path d="M26.4768 7.88082C25.8384 7.772 25.1855 7.68132 24.5181 7.60878C24.6051 7.45643 24.6922 7.30408 24.7792 7.15173C25.3451 7.39839 25.911 7.64142 26.4768 7.88082Z" fill="#77767B"/>
<path d="M24.7783 8.29425C25.4385 8.34503 26.095 8.41758 26.7479 8.51189C26.6754 8.64247 26.6101 8.77668 26.5521 8.91452C25.9572 8.70414 25.3659 8.49738 24.7783 8.29425Z" fill="white"/>
<path d="M24.5935 7.48901C25.4423 7.58332 26.2766 7.71391 27.0964 7.88076C26.9731 8.09115 26.857 8.30153 26.7482 8.51191C26.0953 8.4176 25.4387 8.34506 24.7785 8.29428C24.6044 8.23624 24.4339 8.1782 24.2671 8.12016C24.3687 7.90253 24.4775 7.69214 24.5935 7.48901Z" fill="white"/>
<path d="M25.0177 6.73816C25.8519 6.88325 26.6717 7.06099 27.477 7.27137C27.3464 7.4745 27.2194 7.67763 27.0961 7.88076C26.2763 7.7139 25.4421 7.58332 24.5933 7.48901C24.7238 7.2351 24.8653 6.98482 25.0177 6.73816Z" fill="#77767B"/>
<path d="M25.4746 6.00909C26.1058 6.16144 26.7297 6.33193 27.3463 6.52055C27.4987 6.6076 27.651 6.69466 27.8033 6.78171C27.6873 6.94131 27.5785 7.10454 27.4769 7.2714C26.6716 7.06101 25.8519 6.88328 25.0176 6.73818C25.1627 6.49153 25.315 6.2485 25.4746 6.00909Z" fill="#77767B"/>
<path d="M27.3468 6.5205C26.7301 6.33188 26.1062 6.1614 25.4751 6.00905C25.5694 5.86396 25.6673 5.72249 25.7689 5.58466C26.2985 5.8966 26.8245 6.20855 27.3468 6.5205Z" fill="#77767B"/>
<path d="M25.6489 6.71649C26.2873 6.84707 26.9185 6.99942 27.5424 7.17353C27.4553 7.29686 27.3755 7.42019 27.303 7.54352C26.7516 7.26784 26.2003 6.99217 25.6489 6.71649Z" fill="white"/>
<path d="M25.5508 5.90033C26.3706 6.0962 27.1686 6.32472 27.9448 6.58589C27.807 6.77451 27.6728 6.97039 27.5422 7.17352C26.9183 6.99941 26.2871 6.84706 25.6487 6.71647C25.4891 6.64393 25.3295 6.56775 25.1699 6.48795C25.2933 6.28482 25.4202 6.08895 25.5508 5.90033Z" fill="white"/>
<path d="M26.0514 5.20386C26.8494 5.44326 27.6256 5.71531 28.3801 6.02C28.235 6.20862 28.0899 6.39724 27.9448 6.58586C27.1686 6.32469 26.3706 6.09617 25.5508 5.9003C25.7104 5.6609 25.8772 5.42875 26.0514 5.20386Z" fill="#77767B"/>
<path d="M26.5736 4.52917C27.1757 4.75407 27.767 4.9971 28.3474 5.25827C28.4852 5.35983 28.623 5.46502 28.7609 5.57384C28.6303 5.71893 28.5033 5.86765 28.38 6.02C27.6255 5.71531 26.8493 5.44326 26.0513 5.20386C26.2181 4.97171 26.3922 4.74681 26.5736 4.52917Z" fill="#77767B"/>
<path d="M28.3475 5.25829C27.7671 4.99713 27.1759 4.75409 26.5737 4.5292C26.6825 4.39862 26.795 4.26803 26.9111 4.13745C27.3899 4.50744 27.8687 4.88105 28.3475 5.25829Z" fill="#77767B"/>
<path d="M26.6606 5.2583C27.27 5.46143 27.8685 5.68632 28.4562 5.93298C28.3619 6.0418 28.2712 6.15424 28.1841 6.27032C27.6763 5.93661 27.1685 5.59927 26.6606 5.2583Z" fill="white"/>
<path d="M26.6609 4.42041C27.4371 4.71785 28.1916 5.04068 28.9243 5.3889C28.7647 5.56301 28.6087 5.74438 28.4564 5.933C27.8688 5.68634 27.2703 5.46145 26.6609 5.25832C26.5158 5.16401 26.3707 5.06607 26.2256 4.96451C26.3707 4.78314 26.5158 4.60178 26.6609 4.42041Z" fill="white"/>
<path d="M27.2265 3.78925C27.9737 4.12296 28.7028 4.48569 29.4138 4.87744C29.2469 5.04429 29.0837 5.21478 28.9241 5.38889C28.1914 5.04066 27.4369 4.71784 26.6606 4.4204C26.842 4.20276 27.0306 3.99237 27.2265 3.78925Z" fill="#77767B"/>
<path d="M27.8147 3.17987C28.3805 3.47006 28.9319 3.77838 29.4687 4.10483C29.5921 4.22816 29.7118 4.35149 29.8278 4.47482C29.69 4.6054 29.5522 4.73961 29.4143 4.87745C28.7034 4.4857 27.9743 4.12297 27.2271 3.78926C27.4157 3.57888 27.6115 3.37575 27.8147 3.17987Z" fill="#77767B"/>
<path d="M29.4685 4.10481C28.9317 3.77835 28.3803 3.47003 27.8145 3.17984C27.9378 3.05651 28.0647 2.93681 28.1953 2.82074C28.6161 3.24876 29.0405 3.67678 29.4685 4.10481Z" fill="#77767B"/>
<path d="M27.8252 3.9198C28.3911 4.19548 28.9497 4.48566 29.501 4.79035C29.3922 4.89192 29.2906 4.99711 29.1963 5.10593C28.7393 4.70693 28.2822 4.31155 27.8252 3.9198Z" fill="white"/>
<path d="M27.9125 3.08185C28.638 3.45909 29.3381 3.86897 30.0128 4.3115C29.8386 4.46385 29.6682 4.62345 29.5013 4.79031C28.9499 4.48561 28.3913 4.19543 27.8255 3.91975C27.6876 3.80368 27.5534 3.68761 27.4229 3.57153C27.5825 3.40468 27.7457 3.24145 27.9125 3.08185Z" fill="white"/>
<path d="M28.5438 2.50507C29.2329 2.92583 29.9004 3.37199 30.546 3.84354C30.3647 3.99589 30.1869 4.15186 30.0128 4.31147C29.3381 3.86893 28.6381 3.45905 27.9126 3.08181C28.1157 2.88594 28.3261 2.69369 28.5438 2.50507Z" fill="#77767B"/>
<path d="M29.1855 1.961C29.7006 2.31647 30.2011 2.68646 30.6872 3.07095C30.796 3.20879 30.9012 3.34663 31.0028 3.48447C30.8504 3.60054 30.6981 3.72024 30.5457 3.84357C29.9001 3.37202 29.2326 2.92586 28.5435 2.50509C28.7538 2.31647 28.9679 2.13511 29.1855 1.961Z" fill="#77767B"/>
<path d="M30.6877 3.071C30.2017 2.6865 29.7011 2.31652 29.186 1.96104C29.3239 1.85222 29.4617 1.7434 29.5995 1.63458C29.9623 2.11339 30.325 2.59219 30.6877 3.071Z" fill="#77767B"/>
<path d="M29.1094 2.70099C29.6317 3.04196 30.1432 3.39743 30.6437 3.76742C30.5277 3.86173 30.4152 3.95604 30.3064 4.05035C29.9074 3.60056 29.5084 3.15077 29.1094 2.70099Z" fill="white"/>
<path d="M29.2944 1.8739C29.9619 2.3382 30.5966 2.82788 31.1988 3.34296C31.0102 3.4808 30.8252 3.62226 30.6438 3.76736C30.1432 3.39737 29.6318 3.0419 29.1095 2.70093C28.9934 2.57035 28.8773 2.43976 28.7612 2.30918C28.9353 2.16409 29.1131 2.01899 29.2944 1.8739Z" fill="white"/>
<path d="M29.9691 1.36249C30.6003 1.86306 31.206 2.38901 31.7864 2.94037C31.5905 3.06369 31.3946 3.19791 31.1988 3.343C30.5966 2.82792 29.9619 2.33823 29.2944 1.87394C29.5193 1.69983 29.7442 1.52934 29.9691 1.36249Z" fill="#77767B"/>
<path d="M30.6766 0.883667C31.1409 1.29718 31.587 1.7252 32.015 2.16773C32.1021 2.32008 32.1891 2.47243 32.2762 2.62477C32.1093 2.72634 31.9461 2.83153 31.7865 2.94035C31.2061 2.389 30.6004 1.86304 29.9692 1.36247C30.2014 1.19562 30.4372 1.03601 30.6766 0.883667Z" fill="#77767B"/>
<path d="M32.0152 2.16775C31.5872 1.72522 31.1411 1.29719 30.6768 0.883681C30.8219 0.789371 30.9669 0.698689 31.112 0.611633C31.4167 1.13397 31.7178 1.65267 32.0152 2.16775Z" fill="#77767B"/>
<path d="M30.5024 1.62372C30.9812 2.02272 31.4419 2.43986 31.8844 2.87514C31.7611 2.94769 31.6414 3.02749 31.5253 3.11454C31.1844 2.61397 30.8434 2.11703 30.5024 1.62372Z" fill="white"/>
<path d="M30.7852 0.807495C31.3801 1.35159 31.946 1.91383 32.4828 2.49419C32.2797 2.61752 32.0802 2.74448 31.8843 2.87506C31.4418 2.43979 30.9811 2.02264 30.5023 1.62364C30.408 1.47855 30.3101 1.33708 30.2085 1.19925C30.4044 1.06141 30.5966 0.930824 30.7852 0.807495Z" fill="white"/>
<path d="M31.5142 0.372253C32.0728 0.945368 32.6024 1.54025 33.103 2.15689C32.8926 2.26571 32.6859 2.37816 32.4827 2.49423C31.9459 1.91386 31.38 1.35163 30.7852 0.80753C31.0246 0.655183 31.2676 0.510091 31.5142 0.372253Z" fill="#77767B"/>
<path d="M27.7815 19.1544H19.5112V14.1705C19.5112 13.6373 19.9465 13.202 20.4797 13.202H26.8239C27.3571 13.202 27.7815 13.6373 27.7815 14.1705V19.1544Z" fill="#E72649"/>
<path d="M20.4795 13.202C21.0127 13.1258 21.535 13.0932 22.0683 13.0606C22.5906 13.0279 23.1238 13.0279 23.6461 13.017C24.1793 13.0279 24.7017 13.0279 25.2349 13.0606C25.7681 13.0932 26.2904 13.1258 26.8237 13.202C26.2904 13.2782 25.7681 13.3217 25.2349 13.3435C24.7017 13.3761 24.1793 13.387 23.6461 13.387C23.1238 13.387 22.5906 13.3761 22.0683 13.3435C21.535 13.3217 21.0127 13.2782 20.4795 13.202Z" fill="#FF617D"/>
<g opacity="0.1">
<g opacity="0.1">
<g style="mix-blend-mode:overlay" opacity="0.1">
<path d="M21.1544 18.6756H19.5112V14.1705C19.5112 13.6373 19.9465 13.202 20.4797 13.202H21.1544V18.6756Z" fill="#111922"/>
</g>
<g style="mix-blend-mode:overlay" opacity="0.1">
<path d="M27.7816 14.1705V18.6756H26.6172V13.202H26.8239C27.3572 13.202 27.7816 13.6373 27.7816 14.1705Z" fill="#111922"/>
</g>
</g>
</g>
<path d="M46.4332 41.7889C46.4332 54.6078 36.0409 65 23.2111 65C10.3922 65 0 54.6078 0 41.7889C0 28.9591 10.3922 18.5668 23.2111 18.5668C36.0409 18.5668 46.4332 28.9591 46.4332 41.7889Z" fill="#E72649"/>
<path d="M43.8868 43.6388C44.8226 42.05 45.5626 40.3742 46.2264 38.6657C46.357 39.6778 46.4332 40.7224 46.4332 41.7889C46.4332 54.6078 36.0409 65 23.2111 65C10.3922 65 0 54.6078 0 41.7889C0 33.2574 4.60305 25.8033 11.4587 21.7661C10.414 23.6704 9.96784 25.8577 9.72844 28.0232C9.41286 30.7981 9.42375 33.6383 10.1746 36.3152C10.6099 37.904 11.2954 39.4057 12.1333 40.8095C15.0497 45.7063 19.8486 49.4497 25.3114 51.082C28.8371 52.1376 32.7437 52.3008 36.1389 50.897C39.4687 49.5259 42.0695 46.751 43.8868 43.6388Z" fill="#D01E3E"/>
<g opacity="0.1">
<path opacity="0.1" d="M36.5741 60.7778C32.7872 63.433 28.1842 65 23.2111 65C10.3922 65 0 54.6078 0 41.7889C0 35.7168 2.33961 30.1887 6.14829 26.0427C5.71301 30.2431 6.02858 34.5089 7.35618 38.6875C9.04288 43.9761 12.2857 48.9165 16.4535 52.5837C20.371 56.0442 25.1699 58.1662 30.23 59.3305C32.3411 59.8093 34.4848 60.1684 36.5741 60.7778Z" fill="#111922"/>
</g>
</svg>
